<?xml version="1.0" encoding="UTF-8"?>
<svg version="1.1" xmlns="http://www.w3.org/2000/svg" width="122" height="171">
<path d="M0 0 C40.26 0 80.52 0 122 0 C122 56.43 122 112.86 122 171 C81.74 171 41.48 171 0 171 C0 114.57 0 58.14 0 0 Z " fill="#F8F2F8" transform="translate(0,0)"/>
<path d="M0 0 C0.92212784 0.00359528 1.84425568 0.00719055 2.79432678 0.01089478 C4.24295105 0.01067574 4.24295105 0.01067574 5.72084045 0.01045227 C8.92952175 0.01115182 12.1381458 0.0189462 15.34681702 0.02676392 C17.56499195 0.02862794 19.78316729 0.03005192 22.00134277 0.03105164 C27.85231148 0.03487801 33.70325554 0.04470931 39.55421448 0.05575562 C45.51958381 0.06596717 51.4849571 0.07054871 57.45033264 0.07559204 C69.16453621 0.08633147 80.87872144 0.10340932 92.59291077 0.12442017 C92.61603712 8.71247737 92.63382734 17.30052166 92.64472294 25.88860226 C92.64995113 29.87599217 92.65704761 33.86336084 92.66835022 37.85073853 C92.67918138 41.69567131 92.68518808 45.54058361 92.68778801 49.38553047 C92.68964185 50.85561 92.69326167 52.32568835 92.69864082 53.7957592 C92.70585432 55.84796484 92.70690158 57.90008484 92.70643616 59.95230103 C92.70865677 61.12256332 92.71087738 62.29282562 92.71316528 63.49855042 C92.59291077 66.12442017 92.59291077 66.12442017 91.59291077 67.12442017 C88.51836316 67.21974344 85.46631919 67.24993396 82.39149475 67.23794556 C80.94287048 67.2381646 80.94287048 67.2381646 79.46498108 67.23838806 C76.25629978 67.23768851 73.04767574 67.22989413 69.83900452 67.22207642 C67.62082959 67.22021239 65.40265425 67.21878841 63.18447876 67.2177887 C57.33351005 67.21396232 51.48256599 67.20413102 45.63160706 67.19308472 C39.66623773 67.18287316 33.70086443 67.17829163 27.73548889 67.17324829 C16.02128533 67.16250886 4.30710009 67.14543101 -7.40708923 67.12442017 C-7.43021559 58.53636296 -7.44800581 49.94831868 -7.45890141 41.36023808 C-7.4641296 37.37284817 -7.47122608 33.38547949 -7.48252869 29.39810181 C-7.49335985 25.55316902 -7.49936655 21.70825672 -7.50196648 17.86330986 C-7.50382031 16.39323033 -7.50744014 14.92315198 -7.51281929 13.45308113 C-7.52003278 11.40087549 -7.52108005 9.34875549 -7.52061462 7.29653931 C-7.52283524 6.12627701 -7.52505585 4.95601471 -7.52734375 3.75028992 C-7.29559684 -1.31012054 -4.37404238 0.00720639 0 0 Z " fill="#4A494A" transform="translate(18.407089233398438,33.875579833984375)"/>
<path d="M0 0 C0.99 0.66 1.98 1.32 3 2 C3.26667539 4.83727325 3.34791234 7.45383045 3.29296875 10.2890625 C3.28872391 11.10748627 3.28447906 11.92591003 3.28010559 12.76913452 C3.26328679 15.38808836 3.22562974 18.00627802 3.1875 20.625 C3.17245726 22.3984264 3.15876814 24.17186484 3.14648438 25.9453125 C3.11337292 30.2971703 3.06156952 34.64845551 3 39 C0.30298183 40.34850909 -1.98764919 40.18816948 -5 40.3125 C-12.5650603 40.83249306 -18.6948119 42.79654127 -25 47 C-28.87511568 47.43880895 -30.69721806 46.80220372 -33.8125 44.5625 C-38.92851548 41.47554829 -43.76492849 41.37203721 -49.59106445 41.27758789 C-54.82373011 41.17626989 -54.82373011 41.17626989 -57 39 C-57.17525055 36.20315203 -57.23143189 33.5067192 -57.1953125 30.7109375 C-57.1924826 29.89251373 -57.18965271 29.07408997 -57.18673706 28.23086548 C-57.17552532 25.61209607 -57.15041929 22.99366636 -57.125 20.375 C-57.11497147 18.60156743 -57.1058454 16.82812951 -57.09765625 15.0546875 C-57.07558278 10.70299374 -57.04104644 6.3515545 -57 2 C-53.37762495 0.79254165 -50.0229405 0.77753971 -46.25 0.75 C-45.5590625 0.729375 -44.868125 0.70875 -44.15625 0.6875 C-39.05147958 0.64911827 -35.57053254 1.72669847 -31 4 C-31 4.66 -31 5.32 -31 6 C-28.36 6 -25.72 6 -23 6 C-23 5.34 -23 4.68 -23 4 C-15.6387359 -0.36223058 -8.44411677 -0.93341137 0 0 Z " fill="#F1EFFA" transform="translate(88,43)"/>
<path d="M0 0 C14.04690584 -0.02334046 28.09380867 -0.04091839 42.1407299 -0.05181217 C48.66267442 -0.05703958 55.18460594 -0.06413468 61.70654297 -0.07543945 C67.99589288 -0.08627334 74.28523026 -0.09227791 80.57458878 -0.09487724 C82.9788546 -0.09673058 85.3831197 -0.10034946 87.78738022 -0.10573006 C91.14456434 -0.1129471 94.50169614 -0.11399066 97.85888672 -0.11352539 C98.86157593 -0.11712067 99.86426514 -0.12071594 100.89733887 -0.12442017 C101.80881683 -0.1230455 102.7202948 -0.12167084 103.65939331 -0.12025452 C104.45397886 -0.12117631 105.24856441 -0.1220981 106.06722832 -0.12304783 C108 0 108 0 110 1 C110.48828125 6.859375 110.48828125 6.859375 110 9 C107.08724944 12.18876944 104.79889135 13.2643078 100.59129333 13.50793457 C98.80247156 13.53164608 97.0132749 13.53331952 95.22436523 13.51757812 C94.24494965 13.5245874 93.26553406 13.53159668 92.25643921 13.53881836 C89.0235345 13.55640371 85.79150714 13.54477418 82.55859375 13.53125 C80.31087577 13.53394453 78.06315893 13.53782662 75.81544495 13.54284668 C71.1070749 13.54874229 66.39900856 13.54017561 61.69067383 13.52148438 C55.65212333 13.49868203 49.61428343 13.51182615 43.57575893 13.53577423 C38.9355177 13.55021908 34.29544533 13.5456324 29.65519905 13.53526306 C27.42842589 13.53259284 25.20163745 13.53587587 22.97488213 13.54518127 C19.86492075 13.55532638 16.75611537 13.53987412 13.64624023 13.51757812 C12.26295784 13.52972351 12.26295784 13.52972351 10.85173035 13.54211426 C7.12296364 13.49252371 4.67813403 13.38294141 1.39710999 11.53015137 C-0.68606078 7.75755121 -0.32432854 4.216271 0 0 Z " fill="#731FD4" transform="translate(6,106)"/>
<path d="M0 0 C0.99 0.66 1.98 1.32 3 2 C3.26667539 4.83727325 3.34791234 7.45383045 3.29296875 10.2890625 C3.28872391 11.10748627 3.28447906 11.92591003 3.28010559 12.76913452 C3.26328679 15.38808836 3.22562974 18.00627802 3.1875 20.625 C3.17245726 22.3984264 3.15876814 24.17186484 3.14648438 25.9453125 C3.11337292 30.2971703 3.06156952 34.64845551 3 39 C0.30298183 40.34850909 -1.98764919 40.18816948 -5 40.3125 C-12.5650603 40.83249306 -18.6948119 42.79654127 -25 47 C-28.87511568 47.43880895 -30.69721806 46.80220372 -33.8125 44.5625 C-38.94761165 41.45876528 -43.8293474 41.3713127 -49.67895508 41.27758789 C-51.45471894 41.2433691 -53.22857116 41.12863947 -55 41 C-55.33 40.34 -55.66 39.68 -56 39 C-41.26769725 38.63220326 -41.26769725 38.63220326 -35 41 C-33.515 41.495 -33.515 41.495 -32 42 C-26.58749448 35.91416844 -26.23206961 31.04046069 -26.1875 23.0625 C-26.16236328 21.99708984 -26.13722656 20.93167969 -26.11132812 19.83398438 C-26.05276983 17.2222844 -26.01626079 14.61224836 -26 12 C-25.22914062 11.67386719 -24.45828125 11.34773438 -23.6640625 11.01171875 C-22.66117188 10.57472656 -21.65828125 10.13773438 -20.625 9.6875 C-19.12839844 9.04361328 -19.12839844 9.04361328 -17.6015625 8.38671875 C-14.74225492 7.1261594 -14.74225492 7.1261594 -13 4 C-14.98 3.67 -16.96 3.34 -19 3 C-19 3.66 -19 4.32 -19 5 C-20.32 4.67 -21.64 4.34 -23 4 C-15.6387359 -0.36223058 -8.44411677 -0.93341137 0 0 Z " fill="#F0EAF0" transform="translate(88,43)"/>
<path d="M0 0 C14.04690584 -0.02334046 28.09380867 -0.04091839 42.1407299 -0.05181217 C48.66267442 -0.05703958 55.18460594 -0.06413468 61.70654297 -0.07543945 C67.99589288 -0.08627334 74.28523026 -0.09227791 80.57458878 -0.09487724 C82.9788546 -0.09673058 85.3831197 -0.10034946 87.78738022 -0.10573006 C91.14456434 -0.1129471 94.50169614 -0.11399066 97.85888672 -0.11352539 C98.86157593 -0.11712067 99.86426514 -0.12071594 100.89733887 -0.12442017 C101.80881683 -0.1230455 102.7202948 -0.12167084 103.65939331 -0.12025452 C104.45397886 -0.12117631 105.24856441 -0.1220981 106.06722832 -0.12304783 C108 0 108 0 110 1 C110.48828125 6.859375 110.48828125 6.859375 110 9 C107.08724944 12.18876944 104.79889135 13.2643078 100.59129333 13.50793457 C98.80247156 13.53164608 97.0132749 13.53331952 95.22436523 13.51757812 C94.24494965 13.5245874 93.26553406 13.53159668 92.25643921 13.53881836 C89.0235345 13.55640371 85.79150714 13.54477418 82.55859375 13.53125 C80.31087577 13.53394453 78.06315893 13.53782662 75.81544495 13.54284668 C71.1070749 13.54874229 66.39900856 13.54017561 61.69067383 13.52148438 C55.65212333 13.49868203 49.61428343 13.51182615 43.57575893 13.53577423 C38.9355177 13.55021908 34.29544533 13.5456324 29.65519905 13.53526306 C27.42842589 13.53259284 25.20163745 13.53587587 22.97488213 13.54518127 C19.86492075 13.55532638 16.75611537 13.53987412 13.64624023 13.51757812 C12.26295784 13.52972351 12.26295784 13.52972351 10.85173035 13.54211426 C7.12296364 13.49252371 4.67813403 13.38294141 1.39710999 11.53015137 C-0.68606078 7.75755121 -0.32432854 4.216271 0 0 Z M3 3 C3.99 3.495 3.99 3.495 5 4 C5.70491267 6.32206525 6.37212429 8.65593068 7 11 C9.12501508 13.12501508 13.93678806 12.16810821 16.87841797 12.17700195 C18.27592285 12.18685875 18.27592285 12.18685875 19.70166016 12.19691467 C22.79850331 12.21669793 25.8952979 12.22832063 28.9921875 12.23828125 C30.57388418 12.24439454 30.57388418 12.24439454 32.18753433 12.25063133 C37.76711076 12.27151228 43.34666244 12.28580593 48.92626953 12.29516602 C54.70264664 12.30624238 60.47863977 12.34065081 66.25488091 12.38033772 C70.68487283 12.40642495 75.11477214 12.41485075 79.54483414 12.41844749 C81.67477134 12.42333292 83.80470389 12.43500202 85.9345665 12.45348549 C88.91095564 12.47771209 91.8863364 12.47694227 94.86279297 12.4699707 C95.74810699 12.48278076 96.63342102 12.49559082 97.54556274 12.50878906 C102.21850709 12.56441855 102.21850709 12.56441855 106.07107544 10.22062683 C107.25727452 7.78615795 107.25727452 7.78615795 107 4 C104.7060839 2.85304195 103.43662851 2.87661348 100.88717651 2.87974548 C100.02618347 2.87837082 99.16519043 2.87699615 98.27810669 2.87557983 C97.33152191 2.87917511 96.38493713 2.88277039 95.40966797 2.88647461 C94.41451172 2.88632858 93.41935547 2.88618256 92.39404297 2.8860321 C89.09340257 2.88673069 85.79281808 2.89452056 82.4921875 2.90234375 C80.20818106 2.90420812 77.92417422 2.90563193 75.64016724 2.90663147 C69.61988222 2.91045513 63.59962121 2.92028414 57.5793457 2.93133545 C51.43961919 2.94155282 45.29988881 2.94612979 39.16015625 2.95117188 C27.10676027 2.96190652 15.05338213 2.97898115 3 3 Z " fill="#9478CB" transform="translate(6,106)"/>
<path d="M0 0 C12 0 12 0 19 4 C19 12.25 19 20.5 19 29 C15 28 15 28 12.875 27 C8.92279451 25.50021547 8.92279451 25.50021547 0 25 C0 16.75 0 8.5 0 0 Z " fill="#7233C5" transform="translate(38,51)"/>
<path d="M0 0 C0 8.25 0 16.5 0 25 C-12.375 27 -12.375 27 -18 27 C-18 19.08 -18 11.16 -18 3 C-12 0 -12 0 0 0 Z " fill="#7125D5" transform="translate(83,51)"/>
<path d="M0 0 C0.92212784 0.00359528 1.84425568 0.00719055 2.79432678 0.01089478 C4.24295105 0.01067574 4.24295105 0.01067574 5.72084045 0.01045227 C8.92952175 0.01115182 12.1381458 0.0189462 15.34681702 0.02676392 C17.56499195 0.02862794 19.78316729 0.03005192 22.00134277 0.03105164 C27.85231148 0.03487801 33.70325554 0.04470931 39.55421448 0.05575562 C45.51958381 0.06596717 51.4849571 0.07054871 57.45033264 0.07559204 C69.16453621 0.08633147 80.87872144 0.10340932 92.59291077 0.12442017 C92.61603712 8.71247737 92.63382734 17.30052166 92.64472294 25.88860226 C92.64995113 29.87599217 92.65704761 33.86336084 92.66835022 37.85073853 C92.67918138 41.69567131 92.68518808 45.54058361 92.68778801 49.38553047 C92.68964185 50.85561 92.69326167 52.32568835 92.69864082 53.7957592 C92.70585432 55.84796484 92.70690158 57.90008484 92.70643616 59.95230103 C92.70865677 61.12256332 92.71087738 62.29282562 92.71316528 63.49855042 C92.59291077 66.12442017 92.59291077 66.12442017 91.59291077 67.12442017 C88.51836316 67.21974344 85.46631919 67.24993396 82.39149475 67.23794556 C80.94287048 67.2381646 80.94287048 67.2381646 79.46498108 67.23838806 C76.25629978 67.23768851 73.04767574 67.22989413 69.83900452 67.22207642 C67.62082959 67.22021239 65.40265425 67.21878841 63.18447876 67.2177887 C57.33351005 67.21396232 51.48256599 67.20413102 45.63160706 67.19308472 C39.66623773 67.18287316 33.70086443 67.17829163 27.73548889 67.17324829 C16.02128533 67.16250886 4.30710009 67.14543101 -7.40708923 67.12442017 C-7.43021559 58.53636296 -7.44800581 49.94831868 -7.45890141 41.36023808 C-7.4641296 37.37284817 -7.47122608 33.38547949 -7.48252869 29.39810181 C-7.49335985 25.55316902 -7.49936655 21.70825672 -7.50196648 17.86330986 C-7.50382031 16.39323033 -7.50744014 14.92315198 -7.51281929 13.45308113 C-7.52003278 11.40087549 -7.52108005 9.34875549 -7.52061462 7.29653931 C-7.52283524 6.12627701 -7.52505585 4.95601471 -7.52734375 3.75028992 C-7.29559684 -1.31012054 -4.37404238 0.00720639 0 0 Z M-6.40708923 2.12442017 C-6.50114065 4.11873746 -6.52452173 6.1164156 -6.52061462 8.11294556 C-6.52049377 9.41219971 -6.52037292 10.71145386 -6.52024841 12.05007935 C-6.51521193 13.44074552 -6.5100453 14.83141122 -6.50474548 16.22207642 C-6.5037384 17.47919434 -6.50273132 18.73631226 -6.50169373 20.03152466 C-6.49644199 24.74999904 -6.48248089 29.46846047 -6.46958923 34.18692017 C-6.44896423 44.72629517 -6.42833923 55.26567017 -6.40708923 66.12442017 C25.93291077 66.12442017 58.27291077 66.12442017 91.59291077 66.12442017 C91.65478577 50.59379517 91.65478577 50.59379517 91.71791077 34.74942017 C91.73611877 31.47858521 91.75432678 28.20775024 91.77308655 24.83779907 C91.77892517 22.25886194 91.78402222 19.67992298 91.78822327 17.10098267 C91.79606339 16.09241714 91.79606339 16.09241714 91.80406189 15.06347656 C91.81865792 13.08725586 91.81958803 11.11094864 91.81996155 9.13467407 C91.82440277 8.01992706 91.82884399 6.90518005 91.8334198 5.75665283 C91.86152069 2.96647502 91.86152069 2.96647502 89.59291077 1.12442017 C86.58508347 0.93077891 83.66963502 0.86227822 80.661026 0.88150024 C79.73575104 0.8796019 78.81047607 0.87770355 77.85716248 0.87574768 C74.78852455 0.87203283 71.72012153 0.88275344 68.65150452 0.89395142 C66.52683541 0.89514283 64.40216577 0.89559646 62.27749634 0.89533997 C57.82115897 0.89690601 53.36490179 0.9052055 48.90858459 0.91860962 C43.1826356 0.93560993 37.45677476 0.93942374 31.73080349 0.93866444 C27.34292756 0.93893572 22.95507109 0.94441003 18.56720161 0.95166588 C16.4551769 0.95485859 14.34314997 0.95682135 12.23112297 0.95755959 C9.28584371 0.9597162 6.34065992 0.96844535 3.395401 0.97915649 C2.51381821 0.97870331 1.63223541 0.97825012 0.72393799 0.9777832 C-3.1534678 0.615656 -3.1534678 0.615656 -6.40708923 2.12442017 Z " fill="#A09D9F" transform="translate(18.407089233398438,33.875579833984375)"/>
<path d="M0 0 C0.99 0.66 1.98 1.32 3 2 C3.26667539 4.83727325 3.34791234 7.45383045 3.29296875 10.2890625 C3.28872391 11.10748627 3.28447906 11.92591003 3.28010559 12.76913452 C3.26328679 15.38808836 3.22562974 18.00627802 3.1875 20.625 C3.17245726 22.3984264 3.15876814 24.17186484 3.14648438 25.9453125 C3.11337292 30.2971703 3.06156952 34.64845551 3 39 C-0.29960141 40.6498007 -3.99127884 40.38258361 -7.625 40.5625 C-8.42679688 40.60568359 -9.22859375 40.64886719 -10.0546875 40.69335938 C-12.0362511 40.79951457 -14.01810271 40.90026855 -16 41 C-13 39 -13 39 0 39 C0.99 21.18 0.99 21.18 2 3 C0.68 3.33 -0.64 3.66 -2 4 C-1.99214478 5.30988892 -1.99214478 5.30988892 -1.98413086 6.64624023 C-1.96712249 9.87589273 -1.95456631 13.10552245 -1.94506836 16.33520508 C-1.9400292 17.73495228 -1.93319784 19.1346942 -1.92456055 20.53442383 C-1.9124768 22.54245777 -1.90730193 24.55052957 -1.90234375 26.55859375 C-1.89448853 28.37315063 -1.89448853 28.37315063 -1.88647461 30.22436523 C-2 33 -2 33 -3 34 C-4.51928038 34.07179964 -6.04167482 34.08392007 -7.5625 34.0625 C-8.38878906 34.05347656 -9.21507813 34.04445312 -10.06640625 34.03515625 C-10.70449219 34.02355469 -11.34257813 34.01195312 -12 34 C-12 33.67 -12 33.34 -12 33 C-9.69 33 -7.38 33 -5 33 C-5 24.75 -5 16.5 -5 8 C-8.3 8 -11.6 8 -15 8 C-14.34 6.68 -13.68 5.36 -13 4 C-15.97 3.505 -15.97 3.505 -19 3 C-19 3.66 -19 4.32 -19 5 C-20.32 4.67 -21.64 4.34 -23 4 C-15.6387359 -0.36223058 -8.44411677 -0.93341137 0 0 Z " fill="#D7CDF0" transform="translate(88,43)"/>
<path d="M0 0 C0.33 0 0.66 0 1 0 C1.103125 1.093125 1.20625 2.18625 1.3125 3.3125 C2.06996751 7.43320281 2.06996751 7.43320281 5 10 C6.9719526 10.44827042 6.9719526 10.44827042 9.16819763 10.38095093 C10.440457 10.39364014 10.440457 10.39364014 11.73841858 10.40658569 C13.12945045 10.39747665 13.12945045 10.39747665 14.54858398 10.38818359 C15.52770752 10.39344055 16.50683105 10.39869751 17.515625 10.40411377 C20.75927583 10.41734093 24.00243773 10.40856523 27.24609375 10.3984375 C29.49666946 10.40045761 31.74724453 10.40336852 33.99781799 10.40713501 C38.71809105 10.41156219 43.43819396 10.40511514 48.15844727 10.39111328 C54.21264173 10.37403114 60.26643695 10.38385417 66.32061672 10.40183067 C70.96941643 10.41266616 75.61812135 10.40922304 80.2669239 10.4014473 C82.49927886 10.39944414 84.7316424 10.4019086 86.96398735 10.40888596 C90.08356421 10.4164953 93.20249295 10.40490256 96.32202148 10.38818359 C97.71001701 10.39729263 97.71001701 10.39729263 99.12605286 10.40658569 C104.02130466 10.3625165 104.02130466 10.3625165 108.55799866 8.70620728 C110.78550831 6.07056953 110.74693086 3.3531661 111 0 C111.33 0 111.66 0 112 0 C112.16301505 1.41279706 112.2788797 2.83108128 112.375 4.25 C112.47941406 5.43335937 112.47941406 5.43335937 112.5859375 6.640625 C111.84685084 9.61668062 110.46428233 10.55845529 107.92164803 12.15702629 C104.14115994 13.8154216 100.19203615 13.56244169 96.12670898 13.53344727 C95.14875366 13.54206284 94.17079834 13.55067841 93.16320801 13.55955505 C89.94056505 13.58220112 86.71879245 13.57547945 83.49609375 13.56640625 C81.25219972 13.57164171 79.00830791 13.5779179 76.76441956 13.58518982 C72.06622953 13.595591 67.36834246 13.59103529 62.67016602 13.57641602 C56.64845039 13.55921228 50.6276875 13.58274541 44.60607815 13.61790562 C39.974367 13.63985816 35.34288468 13.63844354 30.71113777 13.6301403 C28.49076351 13.62931994 26.27037259 13.63619957 24.05004692 13.65091133 C20.94739903 13.66832082 17.84647482 13.65384458 14.74389648 13.63110352 C13.82687454 13.64279572 12.9098526 13.65448792 11.96504211 13.66653442 C7.45186261 13.59919073 5.58916161 13.45922839 1.92152405 10.60044861 C-0.93961624 6.72839283 -0.39624276 4.67566455 0 0 Z " fill="#BBADDF" transform="translate(5,108)"/>
<path d="M0 0 C0.6909375 -0.020625 1.381875 -0.04125 2.09375 -0.0625 C7.19852042 -0.10088173 10.67946746 0.97669847 15.25 3.25 C15.25 3.91 15.25 4.57 15.25 5.25 C17.23 5.25 19.21 5.25 21.25 5.25 C21.25 5.91 21.25 6.57 21.25 7.25 C19.6 7.25 17.95 7.25 16.25 7.25 C16.25 7.91 16.25 8.57 16.25 9.25 C16.91 9.58 17.57 9.91 18.25 10.25 C17.92 10.58 17.59 10.91 17.25 11.25 C17.09213692 13.10174706 16.99892644 14.9590911 16.93359375 16.81640625 C16.89169922 17.94111328 16.84980469 19.06582031 16.80664062 20.22460938 C16.76732422 21.40861328 16.72800781 22.59261719 16.6875 23.8125 C16.64431641 25.00037109 16.60113281 26.18824219 16.55664062 27.41210938 C16.45016454 30.35794784 16.34815159 33.3038743 16.25 36.25 C15.92 36.25 15.59 36.25 15.25 36.25 C15.25 28 15.25 19.75 15.25 11.25 C13.6 10.59 11.95 9.93 10.25 9.25 C9.59 8.92 8.93 8.59 8.25 8.25 C4.29 7.92 0.33 7.59 -3.75 7.25 C-3.75 15.5 -3.75 23.75 -3.75 32.25 C-0.45 32.25 2.85 32.25 6.25 32.25 C6.25 32.58 6.25 32.91 6.25 33.25 C2.62 33.25 -1.01 33.25 -4.75 33.25 C-4.75 23.68 -4.75 14.11 -4.75 4.25 C1.19 3.755 1.19 3.755 7.25 3.25 C1.13867523 1.85776773 1.13867523 1.85776773 -9.75 2.25 C-9.75 14.13 -9.75 26.01 -9.75 38.25 C-10.08 38.25 -10.41 38.25 -10.75 38.25 C-10.75 26.04 -10.75 13.83 -10.75 1.25 C-7.12762495 0.04254165 -3.7729405 0.02753971 0 0 Z " fill="#C6B5EB" transform="translate(41.75,43.75)"/>
<path d="M0 0 C2.50651042 0.84635417 5.01302083 1.69270833 7.51953125 2.5390625 C7.51953125 8.1490625 7.51953125 13.7590625 7.51953125 19.5390625 C3.31958536 19.5390625 -0.34492841 19.2727874 -4.48046875 18.5390625 C-7.0007538 14.75863492 -6.61238797 12.9530609 -6.29296875 8.4765625 C-6.21691406 7.22746094 -6.14085937 5.97835937 -6.0625 4.69140625 C-5.87042969 3.65113281 -5.67835937 2.61085937 -5.48046875 1.5390625 C-2.48046875 -0.4609375 -2.48046875 -0.4609375 0 0 Z " fill="#7223D5" transform="translate(47.48046875,54.4609375)"/>
<path d="M0 0 C1.65 0 3.3 0 5 0 C5.30415994 25.71841239 5.30415994 25.71841239 3 36 C2.11957031 36.04898438 1.23914063 36.09796875 0.33203125 36.1484375 C-0.82941406 36.22320312 -1.99085937 36.29796875 -3.1875 36.375 C-4.91033203 36.47941406 -4.91033203 36.47941406 -6.66796875 36.5859375 C-9.8173989 36.97730866 -12.11012338 37.75574757 -15 39 C-17.8125 39.125 -17.8125 39.125 -20 39 C-17.82079343 33.43091655 -17.82079343 33.43091655 -14.5 31.6875 C-9.72528747 30.74961004 -4.84597146 30.44054286 0 30 C0 20.1 0 10.2 0 0 Z " fill="#F5F2F7" transform="translate(85,46)"/>
<path d="M0 0 C0 8.25 0 16.5 0 25 C-12.375 27 -12.375 27 -18 27 C-18 19.08 -18 11.16 -18 3 C-12 0 -12 0 0 0 Z M-15 6 C-15.64302604 9.24010209 -15.4687917 12.40056536 -15.3125 15.6875 C-15.28994141 16.58017578 -15.26738281 17.47285156 -15.24414062 18.39257812 C-15.18523181 20.59576764 -15.09555035 22.79809528 -15 25 C-11.04 24.34 -7.08 23.68 -3 23 C-2.06839966 19.27359864 -1.80212445 16.25561583 -1.75 12.4375 C-1.72421875 11.30183594 -1.6984375 10.16617188 -1.671875 8.99609375 C-1.74660245 6.02120491 -1.74660245 6.02120491 -3.3671875 4.12109375 C-7.43823648 1.32589983 -11.59146329 2.98714749 -15 6 Z " fill="#7345B8" transform="translate(83,51)"/>
<path d="M0 0 C0.33 0 0.66 0 1 0 C1.33 19.14 1.66 38.28 2 58 C-29.68 58 -61.36 58 -94 58 C-93.67 57.01 -93.34 56.02 -93 55 C-92.67 55.66 -92.34 56.32 -92 57 C-91.08704163 56.98120789 -91.08704163 56.98120789 -90.15563965 56.96203613 C-83.79616234 56.83129493 -77.43666242 56.70169853 -71.07714844 56.57275391 C-68.70669979 56.52454249 -66.33625697 56.47604342 -63.96582031 56.42724609 C-60.55014531 56.35698242 -57.13445037 56.28776797 -53.71875 56.21875 C-52.14015198 56.18593933 -52.14015198 56.18593933 -50.52966309 56.15246582 C-46.15431369 56.06490598 -41.78445156 55.99089159 -37.40820312 56.02148438 C-34.16455126 56.13533458 -34.16455126 56.13533458 -31.75 55.4375 C-30 55 -30 55 -26 56 C-13.13 56.495 -13.13 56.495 0 57 C0 38.19 0 19.38 0 0 Z " fill="#3E3D3E" transform="translate(107,40)"/>
<path d="M0 0 C33.66 0 67.32 0 102 0 C102 1.65 102 3.3 102 5 C100.35 5.33 98.7 5.66 97 6 C97 4.35 97 2.7 97 1 C96.39994141 1.0714624 95.79988281 1.1429248 95.18164062 1.21655273 C88.92546945 1.90906201 82.79008048 2.11988231 76.5 2.0625 C74.47290064 2.05422019 72.44580102 2.04600325 70.41870117 2.0378418 C68.279134 2.02524777 66.13956694 2.01263345 64 2 C45.67446931 1.9051427 45.67446931 1.9051427 27.35546875 2.32421875 C26.16052292 2.36810226 26.16052292 2.36810226 24.94143677 2.41287231 C21.27766732 2.55293941 17.61647614 2.7161312 13.95507812 2.90820312 C12.68470703 2.96298828 11.41433594 3.01777344 10.10546875 3.07421875 C8.46807739 3.16062622 8.46807739 3.16062622 6.79760742 3.2487793 C4 3 4 3 0 0 Z " fill="#7112D1" transform="translate(9,109)"/>
<path d="M0 0 C33.66 0 67.32 0 102 0 C102 0.33 102 0.66 102 1 C52.995 1.495 52.995 1.495 3 2 C3.99 4.31 4.98 6.62 6 9 C5.01 9 4.02 9 3 9 C2.67 7.35 2.34 5.7 2 4 C1.34 4 0.68 4 0 4 C0 2.68 0 1.36 0 0 Z " fill="#723CC1" transform="translate(8,108)"/>
<path d="M0 0 C0.70769531 -0.01224609 1.41539063 -0.02449219 2.14453125 -0.03710938 C6.25932929 -0.04860322 9.42660538 0.3528062 13.125 2.1875 C13.125 3.8375 13.125 5.4875 13.125 7.1875 C7.515 6.8575 1.905 6.5275 -3.875 6.1875 C-4.205 5.5275 -4.535 4.8675 -4.875 4.1875 C1.065 3.6925 1.065 3.6925 7.125 3.1875 C1.01367523 1.79526773 1.01367523 1.79526773 -9.875 2.1875 C-9.875 14.0675 -9.875 25.9475 -9.875 38.1875 C-10.205 38.1875 -10.535 38.1875 -10.875 38.1875 C-10.875 25.9775 -10.875 13.7675 -10.875 1.1875 C-7.21148419 -0.03367194 -3.81447028 0.00343646 0 0 Z " fill="#D1CFD7" transform="translate(41.875,43.8125)"/>
<path d="M0 0 C6.93 0.33 13.86 0.66 21 1 C21.33 1.66 21.66 2.32 22 3 C15.07 3 8.14 3 1 3 C1 15.21 1 27.42 1 40 C0.34 39.67 -0.32 39.34 -1 39 C-1.02471188 33.92798214 -1.04286564 28.85599929 -1.05493164 23.78393555 C-1.05996158 22.0583434 -1.06678626 20.33275552 -1.07543945 18.60717773 C-1.08756361 16.1274307 -1.09324169 13.64774 -1.09765625 11.16796875 C-1.10539818 10.01001045 -1.10539818 10.01001045 -1.11329651 8.82865906 C-1.11363318 5.6169772 -1.02326578 3.06979734 0 0 Z " fill="#656364" transform="translate(30,42)"/>
<path d="M0 0 C0.66 0 1.32 0 2 0 C2.33 5.28 2.66 10.56 3 16 C-1.19994589 16 -4.86445966 15.7337249 -9 15 C-11.23551759 11.64672361 -11.17283528 11.09256343 -10.625 7.3125 C-10.51414063 6.50425781 -10.40328125 5.69601563 -10.2890625 4.86328125 C-10.19367187 4.24839844 -10.09828125 3.63351563 -10 3 C-7.49701566 5.93828597 -6.53069061 8.17902761 -6 12 C-5.01 11.34 -4.02 10.68 -3 10 C-2.01 10 -1.02 10 0 10 C0 6.7 0 3.4 0 0 Z " fill="#760BDC" transform="translate(52,58)"/>
<path d="M0 0 C0.66 0 1.32 0 2 0 C2 7.92 2 15.84 2 24 C4.97 23.67 7.94 23.34 11 23 C4.79621973 27.13585351 4.79621973 27.13585351 1.3671875 26.55078125 C0.58601563 26.36902344 -0.19515625 26.18726562 -1 26 C-1.02886751 21.85418113 -1.04675327 17.70838784 -1.0625 13.5625 C-1.07087891 12.37849609 -1.07925781 11.19449219 -1.08789062 9.97460938 C-1.09111328 8.84990234 -1.09433594 7.72519531 -1.09765625 6.56640625 C-1.10289307 5.52427979 -1.10812988 4.48215332 -1.11352539 3.40844727 C-1 1 -1 1 0 0 Z " fill="#E0D6FB" transform="translate(63,54)"/>
<path d="M0 0 C0.99 0.33 1.98 0.66 3 1 C3 13.21 3 25.42 3 38 C-0.29960141 39.6498007 -3.99127884 39.38258361 -7.625 39.5625 C-8.42679687 39.60568359 -9.22859375 39.64886719 -10.0546875 39.69335938 C-12.0362511 39.79951457 -14.01810271 39.90026855 -16 40 C-13 38 -13 38 0 38 C0.99 20.18 0.99 20.18 2 2 C1.34 2 0.68 2 0 2 C0 1.34 0 0.68 0 0 Z " fill="#B8B6B5" transform="translate(88,44)"/>
<path d="M0 0 C1.625 1.3125 1.625 1.3125 2.625 2.3125 C2.66563832 3.97867115 2.667721 5.64638095 2.625 7.3125 C1.635 7.3125 0.645 7.3125 -0.375 7.3125 C-0.375 6.6525 -0.375 5.9925 -0.375 5.3125 C-1.344375 5.8075 -2.31375 6.3025 -3.3125 6.8125 C-6.375 8.3125 -6.375 8.3125 -7.375 8.3125 C-7.375 9.405625 -7.375 10.49875 -7.375 11.625 C-7.375 13.85416667 -7.375 16.08333333 -7.375 18.3125 C-8.035 18.3125 -8.695 18.3125 -9.375 18.3125 C-9.375 13.3625 -9.375 8.4125 -9.375 3.3125 C-2.98658798 -0.86453863 -2.98658798 -0.86453863 0 0 Z " fill="#7702DE" transform="translate(77.375,55.6875)"/>
<path d="M0 0 C-0.66 0.66 -1.32 1.32 -2 2 C-5.96 2 -9.92 2 -14 2 C-14 11.24 -14 20.48 -14 30 C-14.33 30 -14.66 30 -15 30 C-15 21.09 -15 12.18 -15 3 C-15.99 3.33 -16.98 3.66 -18 4 C-18.33 2.68 -18.66 1.36 -19 0 C-12.86888158 -2.04370614 -6.23447916 -1.03907986 0 0 Z " fill="#F1EDFC" transform="translate(51,46)"/>
<path d="M0 0 C0 0.66 0 1.32 0 2 C-0.99 2 -1.98 2 -3 2 C-3 3.32 -3 4.64 -3 6 C-1.35 6.33 0.3 6.66 2 7 C2 7.66 2 8.32 2 9 C-0.97 8.505 -0.97 8.505 -4 8 C-4 8.66 -4 9.32 -4 10 C-3.01 10.33 -2.02 10.66 -1 11 C-3.64 10.67 -6.28 10.34 -9 10 C-9.66 8.02 -10.32 6.04 -11 4 C-9.88625 3.525625 -8.7725 3.05125 -7.625 2.5625 C-1.68 0 -1.68 0 0 0 Z " fill="#4D4F4E" transform="translate(70,86)"/>
<path d="M0 0 C4.74515082 0.46521086 8.22096423 1.00422162 12 4 C12.56762695 6.63549805 12.56762695 6.63549805 12.48828125 9.76171875 C12.47216797 10.87998047 12.45605469 11.99824219 12.43945312 13.15039062 C12.39755859 14.31763672 12.35566406 15.48488281 12.3125 16.6875 C12.27866211 18.45577148 12.27866211 18.45577148 12.24414062 20.25976562 C12.18513901 23.17444548 12.10286341 26.08659161 12 29 C10.68 28.67 9.36 28.34 8 28 C8.99 27.67 9.98 27.34 11 27 C10.86142159 23.87463363 10.71290431 20.74981783 10.5625 17.625 C10.52318359 16.73554687 10.48386719 15.84609375 10.44335938 14.9296875 C10.38051758 13.65351562 10.38051758 13.65351562 10.31640625 12.3515625 C10.27974854 11.56604004 10.24309082 10.78051758 10.20532227 9.97119141 C10.109109 7.92476504 10.109109 7.92476504 9 6 C7.02477154 4.95191959 5.02518491 3.9479589 3 3 C3 2.34 3 1.68 3 1 C2.01 0.67 1.02 0.34 0 0 Z " fill="#8463B7" transform="translate(45,51)"/>
<path d="M0 0 C1.6328125 1.12109375 1.6328125 1.12109375 3 3 C3.328125 5.99609375 3.328125 5.99609375 3.25 9.4375 C3.23453125 10.57058594 3.2190625 11.70367187 3.203125 12.87109375 C3.03768337 15.4195311 2.74002021 17.57106269 2 20 C-1.96 20.495 -1.96 20.495 -6 21 C-6 20.34 -6 19.68 -6 19 C-4.5459375 18.566875 -4.5459375 18.566875 -3.0625 18.125 C0.10664203 17.35785318 0.10664203 17.35785318 1 15 C1.07033769 13.12620395 1.0843022 11.24998898 1.0625 9.375 C1.04896484 7.87066406 1.04896484 7.87066406 1.03515625 6.3359375 C1.02355469 5.56507812 1.01195313 4.79421875 1 4 C-0.78859087 2.83408333 -0.78859087 2.83408333 -3 2 C-6.72317444 3.28577587 -6.72317444 3.28577587 -10 5 C-10 4.34 -10 3.68 -10 3 C-6.65009099 0.51149616 -4.18111316 -0.66017576 0 0 Z " fill="#7525D1" transform="translate(78,54)"/>
<path d="M0 0 C0 0.66 0 1.32 0 2 C0.66 2 1.32 2 2 2 C1.67 3.32 1.34 4.64 1 6 C0.34 5.34 -0.32 4.68 -1 4 C-4.75425503 4.34761621 -8.36950856 4.9834624 -12 6 C-12 5.34 -12 4.68 -12 4 C-12.66 3.67 -13.32 3.34 -14 3 C-8.99067246 -0.00559652 -5.67276511 -0.29341888 0 0 Z " fill="#7E53BF" transform="translate(79,51)"/>
<path d="M0 0 C0.33 0 0.66 0 1 0 C1 7.26 1 14.52 1 22 C6.94 22.99 6.94 22.99 13 24 C13.33 24.99 13.66 25.98 14 27 C9.38 26.34 4.76 25.68 0 25 C0 16.75 0 8.5 0 0 Z " fill="#886BC2" transform="translate(38,51)"/>
<path d="M0 0 C14.73230275 -0.36779674 14.73230275 -0.36779674 21 2 C21.99 2.33 22.98 2.66 24 3 C24.33 3.99 24.66 4.98 25 6 C18.125 4.125 18.125 4.125 17 3 C13.57498928 2.76340386 10.15719432 2.60326028 6.7265625 2.48242188 C4.81313467 2.39089509 2.90487161 2.20260148 1 2 C0.67 1.34 0.34 0.68 0 0 Z " fill="#A6A6A6" transform="translate(32,82)"/>
<path d="M0 0 C2.97 0.33 5.94 0.66 9 1 C9 1.33 9 1.66 9 2 C6.69 2 4.38 2 2 2 C2 8.6 2 15.2 2 22 C1.34 22 0.68 22 0 22 C0 14.74 0 7.48 0 0 Z " fill="#6F38BB" transform="translate(39,51)"/>
<path d="M0 0 C0.99 0 1.98 0 3 0 C3.38133299 1.9914056 3.71325582 3.99279077 4 6 C3 7 3 7 -0.5625 7.0625 C-1.696875 7.041875 -2.83125 7.02125 -4 7 C-3.67 5.35 -3.34 3.7 -3 2 C-2.01 2 -1.02 2 0 2 C0 1.34 0 0.68 0 0 Z " fill="#41483A" transform="translate(70,86)"/>
<path d="M0 0 C0.33 0 0.66 0 1 0 C1 7.59 1 15.18 1 23 C3.97 22.67 6.94 22.34 10 22 C4 26 4 26 0 26 C0 17.42 0 8.84 0 0 Z " fill="#AC91D9" transform="translate(64,55)"/>
<path d="M0 0 C1.27230469 0.01804687 2.54460937 0.03609375 3.85546875 0.0546875 C5.31919922 0.08949219 5.31919922 0.08949219 6.8125 0.125 C6.8125 1.115 6.8125 2.105 6.8125 3.125 C-4.70914009 3.30951025 -4.70914009 3.30951025 -10.1875 2.125 C-6.4507157 -0.36618953 -4.44298181 -0.0815226 0 0 Z " fill="#ECEBFC" transform="translate(81.1875,76.875)"/>
<path d="M0 0 C0 0.33 0 0.66 0 1 C-6.3778552 2.17293889 -12.50321562 3.29530838 -19 3 C-19 3.66 -19 4.32 -19 5 C-20.32 4.67 -21.64 4.34 -23 4 C-15.46853452 -0.46309065 -8.59141782 -0.43995881 0 0 Z " fill="#BDBFBC" transform="translate(88,43)"/>
<path d="M0 0 C1.98 0 3.96 0 6 0 C6.125 3.375 6.125 3.375 6 7 C5.34 7.66 4.68 8.32 4 9 C3.01 9 2.02 9 1 9 C1.66 6.69 2.32 4.38 3 2 C2.01 1.67 1.02 1.34 0 1 C0 0.67 0 0.34 0 0 Z " fill="#7451AD" transform="translate(110,108)"/>
<path d="M0 0 C0.66 0 1.32 0 2 0 C2 1.32 2 2.64 2 4 C2.66 4 3.32 4 4 4 C4.66 5.98 5.32 7.96 6 10 C3.13275314 9.42655063 2.1385485 9.1385485 0 7 C-0.125 3.375 -0.125 3.375 0 0 Z " fill="#734DAD" transform="translate(6,108)"/>
<path d="M0 0 C1.98 0 3.96 0 6 0 C6 1.65 6 3.3 6 5 C4.35 5.33 2.7 5.66 1 6 C0.67 4.02 0.34 2.04 0 0 Z " fill="#7705DA" transform="translate(105,109)"/>
<path d="M0 0 C2.02045442 0.60183749 4.02111039 1.27306096 6 2 C6.33 2.66 6.66 3.32 7 4 C6.01 4 5.02 4 4 4 C4 4.66 4 5.32 4 6 C2.35 6 0.7 6 -1 6 C-1.33 5.01 -1.66 4.02 -2 3 C-1.34 2.01 -0.68 1.02 0 0 Z " fill="#4C4C4E" transform="translate(51,86)"/>
<path d="M0 0 C0.99 0 1.98 0 3 0 C3 0.66 3 1.32 3 2 C5.475 2.99 5.475 2.99 8 4 C4.91190305 5.76462683 3.76687864 6 0 6 C0 4.02 0 2.04 0 0 Z " fill="#F2F8ED" transform="translate(32,76)"/>
<path d="M0 0 C4.55737263 0.43820891 7.57653445 0.85041169 11 4 C10.67 5.32 10.34 6.64 10 8 C9.67 7.34 9.34 6.68 9 6 C7.02477154 4.95191959 5.02518491 3.9479589 3 3 C3 2.34 3 1.68 3 1 C2.01 0.67 1.02 0.34 0 0 Z " fill="#7D55BD" transform="translate(45,51)"/>
<path d="M0 0 C0 0.66 0 1.32 0 2 C0.99 2 1.98 2 3 2 C3 2.66 3 3.32 3 4 C1.6078125 3.7215625 1.6078125 3.7215625 0.1875 3.4375 C-3.01343771 2.75876119 -3.01343771 2.75876119 -6 4 C-6.33 5.98 -6.66 7.96 -7 10 C-7.33 10 -7.66 10 -8 10 C-8.3125 6.6875 -8.3125 6.6875 -8 3 C-5.15739513 0.61835808 -3.71594733 0 0 0 Z " fill="#7314DA" transform="translate(77,61)"/>
<path d="M0 0 C0.99 0 1.98 0 3 0 C2.67 0.99 2.34 1.98 2 3 C3.98 3 5.96 3 8 3 C6.47058649 6.05882701 4.05780454 6.68951234 1 8 C0.34 7.67 -0.32 7.34 -1 7 C-0.67 4.69 -0.34 2.38 0 0 Z " fill="#D6D1D5" transform="translate(64,81)"/>
<path d="M0 0 C1.134375 0.020625 2.26875 0.04125 3.4375 0.0625 C3.1075 1.3825 2.7775 2.7025 2.4375 4.0625 C0.0625 4.25 0.0625 4.25 -2.5625 4.0625 C-3.2225 3.0725 -3.8825 2.0825 -4.5625 1.0625 C-3.5625 0.0625 -3.5625 0.0625 0 0 Z " fill="#EFF6F2" transform="translate(48.5625,78.9375)"/>
<path d="M0 0 C0.98120464 3.05263664 0.98120464 4.94736336 0 8 C-2.64 8.33 -5.28 8.66 -8 9 C-8 8.34 -8 7.68 -8 7 C-7.05125 6.773125 -6.1025 6.54625 -5.125 6.3125 C-1.80676612 5.30916286 -1.80676612 5.30916286 -0.625 2.375 C-0.41875 1.59125 -0.2125 0.8075 0 0 Z " fill="#6F33C8" transform="translate(80,66)"/>
<path d="M0 0 C0.33 0 0.66 0 1 0 C1.35474551 3.07446111 1.53698855 5.94127109 1 9 C-2 11.5625 -2 11.5625 -5 13 C-5.66 12.67 -6.32 12.34 -7 12 C-6.030625 11.319375 -5.06125 10.63875 -4.0625 9.9375 C-1.2186553 7.60889305 -1.01085438 7.04729408 -0.125 3.1875 C-0.08375 2.135625 -0.0425 1.08375 0 0 Z " fill="#C8BFEA" transform="translate(116,108)"/>
<path d="M0 0 C2.97 0.495 2.97 0.495 6 1 C5.67 2.98 5.34 4.96 5 7 C4.01 6.67 3.02 6.34 2 6 C0.8125 2.9375 0.8125 2.9375 0 0 Z " fill="#7328CF" transform="translate(11,111)"/>
<path d="M0 0 C2.97 0.33 5.94 0.66 9 1 C9 1.33 9 1.66 9 2 C7.88625 2.103125 6.7725 2.20625 5.625 2.3125 C4.42875 2.539375 3.2325 2.76625 2 3 C1.34 3.99 0.68 4.98 0 6 C0 4.02 0 2.04 0 0 Z " fill="#6C41AF" transform="translate(39,51)"/>
<path d="M0 0 C2.76276177 0.52268466 5.3260876 1.10869587 8 2 C8.33 2.99 8.66 3.98 9 5 C2.25 3.375 2.25 3.375 0 0 Z " fill="#BBB8BD" transform="translate(48,83)"/>
<path d="M0 0 C2.97 0 5.94 0 9 0 C9.33 0.66 9.66 1.32 10 2 C7.25 2.6875 7.25 2.6875 4 3 C1.625 1.5625 1.625 1.5625 0 0 Z " fill="#7303D6" transform="translate(9,109)"/>
<path d="M0 0 C0.66 0 1.32 0 2 0 C2 0.66 2 1.32 2 2 C3.98 2 5.96 2 8 2 C8 2.66 8 3.32 8 4 C5.36 4 2.72 4 0 4 C-0.33 3.34 -0.66 2.68 -1 2 C-0.67 1.34 -0.34 0.68 0 0 Z " fill="#DDDADA" transform="translate(55,47)"/>
</svg>
